# xmcd
#
# Track frame offsets:
#	150
#	14762
#	38580
#	61697
#
# Disc length: 1131 seconds
#
# Revision: 0
# Processed by: cddbd v1.5.2PL0 Copyright (c) Steve Scherf et al.
# Submitted via: audiograbber 1.83.01
#
DISCID=28046904
DTITLE=Black Russian - I Wanna Be With You [CD-Maxi)
DYEAR=1995
DGENRE=Dance
TTITLE0=Hi Hy Ho (Old Mc Donald) Radio Edit
TTITLE1=Hi Hy Ho (Old Mc Donald) Western Dance Mix
TTITLE2=Hi Hy Ho (Old Mc Donald) Farmer Trance Mix
TTITLE3=Hi Hy Ho (Old Mc Donald) House Of House Mix
EXTD=Euro Dance
EXTT0=
EXTT1=
EXTT2=
EXTT3=
PLAYORDER=
